
<svg xmlns="http://www.w3.org/2000/svg" viewBox="0 0 512 512"><path stroke="#fdfbfb" fill="rgb(161, 190, 12)" transform="matrix(-1,0,0,-1,536,550)" d="M 29.1 74.2 C 26.4 70.2 25 65.4 25 60.6 C 25 47 36 36 49.6 36 H 158.9 c 11.2 0 21.7 5.9 27.4 15.5 l 68.5 114.1 c -48.2 6.1 -91.3 28.6 -123.4 61.9 L 29.1 74.2 z m 503.7 0 L 430.6 227.5 c -32.1 -33.3 -75.2 -55.8 -123.4 -61.9 L 375.7 51.5 C 381.5 41.9 391.9 36 403.1 36 H 512.4 C 526 36 537 47 537 60.6 c 0 4.8 -1.4 9.6 -4.1 13.6 z M 105 372 C 105 274.8 183.8 196 281 196 C 378.2 196 457 274.8 457 372 C 457 469.2 378.2 548 281 548 C 183.8 548 105 469.2 105 372 z m 184.4 -94.9 c -3.4 -7 -13.3 -7 -16.8 0 l -22.4 45.4 c -1.4 2.8 -4 4.7 -7 5.1 L 193 334.9 c -7.7 1.1 -10.7 10.5 -5.2 16 l 36.3 35.4 c 2.2 2.2 3.2 5.2 2.7 8.3 l -8.6 49.9 c -1.3 7.6 6.7 13.5 13.6 9.9 l 44.8 -23.6 c 2.7 -1.4 6 -1.4 8.7 0 l 44.8 23.6 c 6.9 3.6 14.9 -2.2 13.6 -9.9 l -8.6 -49.9 c -0.5 -3 0.5 -6.1 2.7 -8.3 l 36.3 -35.4 c 5.6 -5.4 2.5 -14.8 -5.2 -16 l -50.1 -7.3 c -3 -0.4 -5.7 -2.4 -7 -5.1 l -22.4 -45.4 z"/></svg>